<svg xmlns="http://www.w3.org/2000/svg" width="14.4" height="16" viewBox="0 0 14.4 16">
    <defs>
        <style>
            .prefix__cls-1{fill:#1665d8}
        </style>
    </defs>
    <g id="prefix__bx-task-x" transform="translate(-3 -2)">
        <path id="prefix__Path_15596" d="M3 16.4A1.6 1.6 0 0 0 4.6 18h11.2a1.6 1.6 0 0 0 1.6-1.6v-12a1.6 1.6 0 0 0-1.6-1.6h-1.6a.8.8 0 0 0-.8-.8H7a.8.8 0 0 0-.8.8H4.6A1.6 1.6 0 0 0 3 4.4zm1.6-12h1.6V6h8V4.4h1.6v12H4.6z" class="prefix__cls-1" data-name="Path 15596"/>
        <path id="prefix__Path_15597" d="M13.092 10.3l-1.834 1.834L9.425 10.3l-1.131 1.126 1.834 1.834-1.834 1.833 1.131 1.131 1.834-1.834 1.834 1.834 1.131-1.131-1.834-1.833 1.834-1.834z" class="prefix__cls-1" data-name="Path 15597" transform="translate(-1.059 -1.659)"/>
    </g>
</svg>
