<svg xmlns="http://www.w3.org/2000/svg" width="12" height="12" viewBox="0 0 12 12">
    <path id="prefix__bx-globe" d="M8 2a6 6 0 1 0 6 6 6.007 6.007 0 0 0-6-6zm4.759 5.4H11.1a8.8 8.8 0 0 0-1.075-3.746A4.808 4.808 0 0 1 12.759 7.4zM8.318 3.216A7.8 7.8 0 0 1 9.894 7.4H6.218a7.653 7.653 0 0 1 1.471-4.184c.1-.006.206-.016.311-.016s.212.01.318.016zm-2.305.42A9.085 9.085 0 0 0 5.018 7.4H3.241a4.808 4.808 0 0 1 2.772-3.764zM3.241 8.6h1.785a9.4 9.4 0 0 0 .934 3.738A4.806 4.806 0 0 1 3.241 8.6zm4.429 4.184A7.185 7.185 0 0 1 6.225 8.6h3.667a7.322 7.322 0 0 1-1.562 4.183c-.109.007-.218.017-.331.017s-.219-.01-.329-.016zm2.407-.463A9.2 9.2 0 0 0 11.091 8.6h1.667a4.8 4.8 0 0 1-2.681 3.721z" transform="translate(-2 -2)" style="fill:#9ea0a5"/>
</svg>
