<svg xmlns="http://www.w3.org/2000/svg" width="32" height="32" viewBox="0 0 32 32">
    <path id="prefix__shuffle" d="M16 0a16 16 0 1 0 16 16A16.018 16.018 0 0 0 16 0zM5.867 9.067h1.066a6.925 6.925 0 0 1 4.624 1.765.533.533 0 1 1-.711.795 5.86 5.86 0 0 0-3.913-1.493H5.867a.533.533 0 1 1 0-1.067zM20.047 27.1a.533.533 0 1 1-.627-.862l4.54-3.3h-4.227a6.927 6.927 0 0 1-4.587-1.738.533.533 0 1 1 .705-.8 5.864 5.864 0 0 0 3.882 1.466h4.227l-4.54-3.3a.533.533 0 0 1 .627-.862l6.46 4.7zm0-12.8a.533.533 0 1 1-.627-.862l4.54-3.3h-4.227A5.874 5.874 0 0 0 13.867 16a6.941 6.941 0 0 1-6.933 6.933H5.867a.533.533 0 0 1 0-1.067h1.066A5.874 5.874 0 0 0 12.8 16a6.941 6.941 0 0 1 6.933-6.933h4.227l-4.54-3.3a.533.533 0 0 1 .627-.862l6.46 4.7z" style="fill:#1665d8"/>
</svg>
