<svg xmlns="http://www.w3.org/2000/svg" width="18" height="20" viewBox="0 0 18 20">
    <path id="prefix__bx-bell" d="M19 13.586V10a7.006 7.006 0 0 0-5.145-6.742 2 2 0 0 0-3.71 0A7.007 7.007 0 0 0 5 10v3.586l-1.707 1.707A1 1 0 0 0 3 16v2a1 1 0 0 0 1 1h16a1 1 0 0 0 1-1v-2a1 1 0 0 0-.293-.707zM19 17H5v-.586l1.707-1.707A1 1 0 0 0 7 14v-4a5 5 0 0 1 10 0v4a1 1 0 0 0 .293.707L19 16.414zm-7 5a2.98 2.98 0 0 0 2.818-2H9.182A2.98 2.98 0 0 0 12 22z" transform="translate(-3 -2)" style="fill:#9ea0a5"/>
</svg>
