<svg xmlns="http://www.w3.org/2000/svg" width="18.846" height="20" viewBox="0 0 18.846 20">
    <defs>
        <style>
            .prefix__cls-1{fill:#1665d8}
        </style>
    </defs>
    <g id="prefix__bx-cog" transform="translate(-2.577 -2)">
        <path id="prefix__Path_15583" d="M12 16a4 4 0 1 0-4-4 4 4 0 0 0 4 4zm0-6a2 2 0 1 1-2 2 2.027 2.027 0 0 1 2-2z" class="prefix__cls-1" data-name="Path 15583"/>
        <path id="prefix__Path_15584" d="M2.845 16.136l1 1.73a2.056 2.056 0 0 0 2.73.73l.525-.306A8.1 8.1 0 0 0 9 19.4v.6a2 2 0 0 0 2 2h2a2 2 0 0 0 2-2v-.6a8.132 8.132 0 0 0 1.9-1.111l.529.306a2.057 2.057 0 0 0 2.731-.731l1-1.729a2 2 0 0 0-.731-2.732l-.5-.292a7.673 7.673 0 0 0 0-2.224l.5-.292a2 2 0 0 0 .731-2.732l-1-1.729a2.053 2.053 0 0 0-2.735-.734l-.525.31A8.1 8.1 0 0 0 15 4.6V4a2 2 0 0 0-2-2h-2a2 2 0 0 0-2 2v.6a8.132 8.132 0 0 0-1.9 1.109L6.575 5.4a2.055 2.055 0 0 0-2.731.732l-1 1.729a2 2 0 0 0 .732 2.739l.5.292a7.667 7.667 0 0 0 0 2.223l-.505.292a2 2 0 0 0-.726 2.729zm3.326-2.758a5.654 5.654 0 0 1 0-2.756A1 1 0 0 0 5.7 9.514l-1.123-.65 1-1.729L6.72 7.8a1 1 0 0 0 1.188-.142 6.071 6.071 0 0 1 2.384-1.4A1 1 0 0 0 11 5.3V4h2v1.3a1 1 0 0 0 .708.956 6.083 6.083 0 0 1 2.384 1.4 1 1 0 0 0 1.188.144l1.144-.661 1 1.729-1.124.646a1 1 0 0 0-.47 1.108 5.654 5.654 0 0 1 0 2.756 1 1 0 0 0 .471 1.108l1.123.649-1 1.729-1.144-.664a1 1 0 0 0-1.188.142 6.071 6.071 0 0 1-2.384 1.4A1 1 0 0 0 13 18.7V20h-2v-1.3a1 1 0 0 0-.708-.956 6.083 6.083 0 0 1-2.384-1.4A1 1 0 0 0 6.72 16.2l-1.144.662-1-1.729 1.124-.647a1 1 0 0 0 .471-1.108z" class="prefix__cls-1" data-name="Path 15584"/>
    </g>
</svg>
