<svg xmlns="http://www.w3.org/2000/svg" width="14.4" height="18" viewBox="0 0 14.4 18">
    <path id="prefix__file-export" d="M17.949 8.3a.45.45 0 0 1-.45-.45V6.5h-3.15a.45.45 0 0 1-.45-.45V2.9H6.25A1.35 1.35 0 0 0 4.9 4.25v13.5a1.35 1.35 0 0 0 1.35 1.35h9.9a1.35 1.35 0 0 0 1.35-1.35v-1.8a.45.45 0 1 1 .9 0v1.8A2.25 2.25 0 0 1 16.149 20H6.25A2.25 2.25 0 0 1 4 17.749V4.25A2.25 2.25 0 0 1 6.25 2h8.074a.44.44 0 0 1 .343.132l3.6 3.6a.44.44 0 0 1 .132.343V7.85a.45.45 0 0 1-.45.45zm-1.086 3.6H9.837a.45.45 0 0 1 0-.9h7.026l-1.932-1.932a.45.45 0 0 1 .636-.636l2.7 2.7a.45.45 0 0 1 0 .636l-2.7 2.7a.45.45 0 0 1-.636-.636zM14.8 3.536V5.6h2.064z" transform="translate(-4 -1.999)" style="fill:#9ea0a5"/>
</svg>
