<svg xmlns="http://www.w3.org/2000/svg" width="16.001" height="20.001" viewBox="0 0 16.001 20.001">
    <path id="prefix__file-table" d="M20 6.529V19.5a2.5 2.5 0 0 1-2.5 2.5h-11A2.5 2.5 0 0 1 4 19.5v-15A2.5 2.5 0 0 1 6.5 2h8.972a.489.489 0 0 1 .382.146l4 4a.489.489 0 0 1 .146.383zM15 3H6.5A1.5 1.5 0 0 0 5 4.5v15A1.5 1.5 0 0 0 6.5 21h11a1.5 1.5 0 0 0 1.5-1.5V7h-3.5a.5.5 0 0 1-.5-.5zm1 .707V6h2.293zM8 15h2v-1H8zm0 1v.5a.5.5 0 0 0 .5.5H10v-1zm8.014-1v-1H11v1zm0 1H11v1h4.514a.5.5 0 0 0 .5-.5zM8 13h2v-1H8.5a.5.5 0 0 0-.5.5zm8.014 0v-.5a.5.5 0 0 0-.5-.5H11v1zM7 12.5A1.5 1.5 0 0 1 8.5 11h7.014a1.5 1.5 0 0 1 1.5 1.5v4a1.5 1.5 0 0 1-1.5 1.5H8.5A1.5 1.5 0 0 1 7 16.5z" transform="translate(-4 -2)" style="fill:#9ea0a5"/>
</svg>
